<svg width="1024" height="1024" viewBox="0 0 1024 1024" fill="none" xmlns="http://www.w3.org/2000/svg">
<g filter="url(#filter0_d_1_17)">
<rect x="255" y="689" width="512" height="168" rx="45" fill="#668466" style="fill:#668466;fill:color(display-p3 0.4000 0.5176 0.4000);fill-opacity:1;"/>
<rect x="255" y="689" width="512" height="168" rx="45" fill="#CDE4C6" fill-opacity="0.5" style="fill:#CDE4C6;fill:color(display-p3 0.8039 0.8941 0.7765);fill-opacity:0.5;"/>
<rect x="257.5" y="691.5" width="507" height="163" rx="42.5" stroke="black" style="stroke:black;stroke-opacity:1;" stroke-width="5"/>
</g>
<g filter="url(#filter1_d_1_17)">
<mask id="path-3-outside-1_1_17" maskUnits="userSpaceOnUse" x="342" y="739" width="337" height="95" fill="black">
<rect fill="white" x="342" y="739" width="337" height="95"/>
<path d="M370.7 827.83V763.09H347.3V745.54H414.9V763.09H391.5V827.83H370.7ZM421.175 786.62C421.175 776.133 422.345 767.813 424.685 761.66C427.112 755.507 431.228 751.087 437.035 748.4C442.928 745.713 451.118 744.37 461.605 744.37C469.492 744.37 476.035 745.107 481.235 746.58C486.435 748.053 490.552 750.437 493.585 753.73C496.618 757.023 498.742 761.4 499.955 766.86C501.255 772.233 501.905 778.82 501.905 786.62C501.905 794.507 501.255 801.18 499.955 806.64C498.742 812.013 496.618 816.347 493.585 819.64C490.552 822.933 486.435 825.317 481.235 826.79C476.035 828.263 469.492 829 461.605 829C453.718 829 447.175 828.263 441.975 826.79C436.775 825.317 432.658 822.933 429.625 819.64C426.592 816.347 424.425 812.013 423.125 806.64C421.825 801.18 421.175 794.507 421.175 786.62ZM461.605 810.8C467.152 810.8 471.312 810.107 474.085 808.72C476.858 807.333 478.722 804.907 479.675 801.44C480.628 797.887 481.105 792.947 481.105 786.62C481.105 780.38 480.628 775.527 479.675 772.06C478.722 768.593 476.858 766.167 474.085 764.78C471.312 763.307 467.152 762.57 461.605 762.57C456.145 762.57 451.985 763.307 449.125 764.78C446.352 766.167 444.445 768.593 443.405 772.06C442.452 775.527 441.975 780.38 441.975 786.62C441.975 792.947 442.452 797.887 443.405 801.44C444.445 804.907 446.352 807.333 449.125 808.72C451.985 810.107 456.145 810.8 461.605 810.8ZM585.937 745.54V794.03C585.937 802.523 584.897 809.327 582.817 814.44C580.824 819.553 577.314 823.28 572.287 825.62C567.261 827.873 560.154 829 550.967 829C541.434 829 534.024 827.873 528.737 825.62C523.537 823.28 519.897 819.553 517.817 814.44C515.737 809.327 514.697 802.523 514.697 794.03V745.54H535.497V793.64C535.497 798.06 535.931 801.527 536.797 804.04C537.664 806.553 539.224 808.33 541.477 809.37C543.731 810.323 546.894 810.8 550.967 810.8C554.781 810.8 557.684 810.323 559.677 809.37C561.757 808.33 563.187 806.553 563.967 804.04C564.747 801.527 565.137 798.06 565.137 793.64V745.54H585.937ZM622.103 827.83H601.303V745.54H640.563C650.877 745.54 658.373 747.88 663.053 752.56C667.82 757.153 670.203 763.957 670.203 772.97C670.203 779.73 668.513 785.537 665.133 790.39C661.753 795.157 657.29 798.147 651.743 799.36L651.613 799.75C653.78 801.137 656.163 803.433 658.763 806.64C661.363 809.847 663.92 813.357 666.433 817.17C669.033 820.897 671.33 824.407 673.323 827.7V827.83H649.143L635.103 807.03C633.89 805.21 632.893 803.91 632.113 803.13C631.42 802.35 630.553 801.873 629.513 801.7C628.56 801.527 627 801.44 624.833 801.44H622.103V827.83ZM637.183 762.44H622.103V784.54H637.183C641.517 784.54 644.507 783.673 646.153 781.94C647.887 780.207 648.753 777.39 648.753 773.49C648.753 769.59 647.887 766.773 646.153 765.04C644.507 763.307 641.517 762.44 637.183 762.44Z"/>
</mask>
<path d="M370.7 827.83V763.09H347.3V745.54H414.9V763.09H391.5V827.83H370.7ZM421.175 786.62C421.175 776.133 422.345 767.813 424.685 761.66C427.112 755.507 431.228 751.087 437.035 748.4C442.928 745.713 451.118 744.37 461.605 744.37C469.492 744.37 476.035 745.107 481.235 746.58C486.435 748.053 490.552 750.437 493.585 753.73C496.618 757.023 498.742 761.4 499.955 766.86C501.255 772.233 501.905 778.82 501.905 786.62C501.905 794.507 501.255 801.18 499.955 806.64C498.742 812.013 496.618 816.347 493.585 819.64C490.552 822.933 486.435 825.317 481.235 826.79C476.035 828.263 469.492 829 461.605 829C453.718 829 447.175 828.263 441.975 826.79C436.775 825.317 432.658 822.933 429.625 819.64C426.592 816.347 424.425 812.013 423.125 806.64C421.825 801.18 421.175 794.507 421.175 786.62ZM461.605 810.8C467.152 810.8 471.312 810.107 474.085 808.72C476.858 807.333 478.722 804.907 479.675 801.44C480.628 797.887 481.105 792.947 481.105 786.62C481.105 780.38 480.628 775.527 479.675 772.06C478.722 768.593 476.858 766.167 474.085 764.78C471.312 763.307 467.152 762.57 461.605 762.57C456.145 762.57 451.985 763.307 449.125 764.78C446.352 766.167 444.445 768.593 443.405 772.06C442.452 775.527 441.975 780.38 441.975 786.62C441.975 792.947 442.452 797.887 443.405 801.44C444.445 804.907 446.352 807.333 449.125 808.72C451.985 810.107 456.145 810.8 461.605 810.8ZM585.937 745.54V794.03C585.937 802.523 584.897 809.327 582.817 814.44C580.824 819.553 577.314 823.28 572.287 825.62C567.261 827.873 560.154 829 550.967 829C541.434 829 534.024 827.873 528.737 825.62C523.537 823.28 519.897 819.553 517.817 814.44C515.737 809.327 514.697 802.523 514.697 794.03V745.54H535.497V793.64C535.497 798.06 535.931 801.527 536.797 804.04C537.664 806.553 539.224 808.33 541.477 809.37C543.731 810.323 546.894 810.8 550.967 810.8C554.781 810.8 557.684 810.323 559.677 809.37C561.757 808.33 563.187 806.553 563.967 804.04C564.747 801.527 565.137 798.06 565.137 793.64V745.54H585.937ZM622.103 827.83H601.303V745.54H640.563C650.877 745.54 658.373 747.88 663.053 752.56C667.82 757.153 670.203 763.957 670.203 772.97C670.203 779.73 668.513 785.537 665.133 790.39C661.753 795.157 657.29 798.147 651.743 799.36L651.613 799.75C653.78 801.137 656.163 803.433 658.763 806.64C661.363 809.847 663.92 813.357 666.433 817.17C669.033 820.897 671.33 824.407 673.323 827.7V827.83H649.143L635.103 807.03C633.89 805.21 632.893 803.91 632.113 803.13C631.42 802.35 630.553 801.873 629.513 801.7C628.56 801.527 627 801.44 624.833 801.44H622.103V827.83ZM637.183 762.44H622.103V784.54H637.183C641.517 784.54 644.507 783.673 646.153 781.94C647.887 780.207 648.753 777.39 648.753 773.49C648.753 769.59 647.887 766.773 646.153 765.04C644.507 763.307 641.517 762.44 637.183 762.44Z" fill="white" style="fill:white;fill-opacity:1;" shape-rendering="crispEdges"/>
<path d="M370.7 827.83H365.7V832.83H370.7V827.83ZM370.7 763.09H375.7V758.09H370.7V763.09ZM347.3 763.09H342.3V768.09H347.3V763.09ZM347.3 745.54V740.54H342.3V745.54H347.3ZM414.9 745.54H419.9V740.54H414.9V745.54ZM414.9 763.09V768.09H419.9V763.09H414.9ZM391.5 763.09V758.09H386.5V763.09H391.5ZM391.5 827.83V832.83H396.5V827.83H391.5ZM370.7 827.83H375.7V763.09H370.7H365.7V827.83H370.7ZM370.7 763.09V758.09H347.3V763.09V768.09H370.7V763.09ZM347.3 763.09H352.3V745.54H347.3H342.3V763.09H347.3ZM347.3 745.54V750.54H414.9V745.54V740.54H347.3V745.54ZM414.9 745.54H409.9V763.09H414.9H419.9V745.54H414.9ZM414.9 763.09V758.09H391.5V763.09V768.09H414.9V763.09ZM391.5 763.09H386.5V827.83H391.5H396.5V763.09H391.5ZM391.5 827.83V822.83H370.7V827.83V832.83H391.5V827.83ZM424.685 761.66L420.034 759.826L420.022 759.854L420.012 759.883L424.685 761.66ZM437.035 748.4L434.961 743.85L434.948 743.856L434.935 743.862L437.035 748.4ZM481.235 746.58L479.872 751.391L479.872 751.391L481.235 746.58ZM493.585 753.73L489.907 757.117L489.907 757.117L493.585 753.73ZM499.955 766.86L495.074 767.945L495.084 767.99L495.095 768.036L499.955 766.86ZM499.955 806.64L495.091 805.482L495.084 805.51L495.078 805.539L499.955 806.64ZM493.585 819.64L489.907 816.253L489.907 816.253L493.585 819.64ZM481.235 826.79L482.598 831.601L481.235 826.79ZM441.975 826.79L440.612 831.601L440.612 831.601L441.975 826.79ZM429.625 819.64L433.303 816.253L433.303 816.253L429.625 819.64ZM423.125 806.64L418.261 807.798L418.263 807.807L418.265 807.816L423.125 806.64ZM479.675 801.44L484.496 802.766L484.5 802.751L484.504 802.736L479.675 801.44ZM479.675 772.06L474.854 773.386L474.854 773.386L479.675 772.06ZM474.085 764.78L471.739 769.196L471.794 769.225L471.849 769.252L474.085 764.78ZM449.125 764.78L451.361 769.252L451.388 769.239L451.415 769.225L449.125 764.78ZM443.405 772.06L438.616 770.623L438.599 770.679L438.584 770.734L443.405 772.06ZM443.405 801.44L438.576 802.736L438.595 802.806L438.616 802.877L443.405 801.44ZM449.125 808.72L446.889 813.192L446.916 813.206L446.944 813.219L449.125 808.72ZM421.175 786.62H426.175C426.175 776.424 427.324 768.787 429.359 763.437L424.685 761.66L420.012 759.883C417.366 766.839 416.175 775.843 416.175 786.62H421.175ZM424.685 761.66L429.336 763.494C431.309 758.492 434.537 755.065 439.135 752.938L437.035 748.4L434.935 743.862C427.919 747.108 422.914 752.522 420.034 759.826L424.685 761.66ZM437.035 748.4L439.109 752.95C444.071 750.688 451.443 749.37 461.605 749.37V744.37V739.37C450.794 739.37 441.786 740.739 434.961 743.85L437.035 748.4ZM461.605 744.37V749.37C469.222 749.37 475.268 750.086 479.872 751.391L481.235 746.58L482.598 741.769C476.802 740.127 469.762 739.37 461.605 739.37V744.37ZM481.235 746.58L479.872 751.391C484.369 752.665 487.618 754.632 489.907 757.117L493.585 753.73L497.263 750.343C493.486 746.242 488.501 743.442 482.598 741.769L481.235 746.58ZM493.585 753.73L489.907 757.117C492.212 759.62 494.005 763.133 495.074 767.945L499.955 766.86L504.836 765.775C503.479 759.667 501.025 754.427 497.263 750.343L493.585 753.73ZM499.955 766.86L495.095 768.036C496.273 772.903 496.905 779.068 496.905 786.62H501.905H506.905C506.905 778.572 506.237 771.564 504.815 765.684L499.955 766.86ZM501.905 786.62H496.905C496.905 794.261 496.273 800.52 495.091 805.482L499.955 806.64L504.819 807.798C506.238 801.84 506.905 794.753 506.905 786.62H501.905ZM499.955 806.64L495.078 805.539C494.013 810.253 492.225 813.736 489.907 816.253L493.585 819.64L497.263 823.027C501.011 818.957 503.47 813.773 504.832 807.741L499.955 806.64ZM493.585 819.64L489.907 816.253C487.618 818.738 484.369 820.705 479.872 821.979L481.235 826.79L482.598 831.601C488.501 829.928 493.486 827.128 497.263 823.027L493.585 819.64ZM481.235 826.79L479.872 821.979C475.268 823.284 469.222 824 461.605 824V829V834C469.762 834 476.802 833.243 482.598 831.601L481.235 826.79ZM461.605 829V824C453.988 824 447.942 823.284 443.338 821.979L441.975 826.79L440.612 831.601C446.408 833.243 453.448 834 461.605 834V829ZM441.975 826.79L443.338 821.979C438.841 820.705 435.592 818.738 433.303 816.253L429.625 819.64L425.947 823.027C429.725 827.128 434.709 829.928 440.612 831.601L441.975 826.79ZM429.625 819.64L433.303 816.253C430.965 813.715 429.131 810.204 427.985 805.464L423.125 806.64L418.265 807.816C419.719 813.823 422.218 818.979 425.947 823.027L429.625 819.64ZM423.125 806.64L427.989 805.482C426.808 800.52 426.175 794.261 426.175 786.62H421.175H416.175C416.175 794.753 416.843 801.84 418.261 807.798L423.125 806.64ZM461.605 810.8V815.8C467.407 815.8 472.503 815.101 476.321 813.192L474.085 808.72L471.849 804.248C470.12 805.112 466.896 805.8 461.605 805.8V810.8ZM474.085 808.72L476.321 813.192C480.571 811.067 483.233 807.36 484.496 802.766L479.675 801.44L474.854 800.114C474.211 802.453 473.146 803.599 471.849 804.248L474.085 808.72ZM479.675 801.44L484.504 802.736C485.624 798.563 486.105 793.119 486.105 786.62H481.105H476.105C476.105 792.775 475.633 797.21 474.846 800.144L479.675 801.44ZM481.105 786.62H486.105C486.105 780.209 485.624 774.836 484.496 770.734L479.675 772.06L474.854 773.386C475.633 776.217 476.105 780.551 476.105 786.62H481.105ZM479.675 772.06L484.496 770.734C483.233 766.14 480.571 762.433 476.321 760.308L474.085 764.78L471.849 769.252C473.146 769.901 474.211 771.047 474.854 773.386L479.675 772.06ZM474.085 764.78L476.431 760.364C472.575 758.316 467.431 757.57 461.605 757.57V762.57V767.57C466.872 767.57 470.048 768.297 471.739 769.196L474.085 764.78ZM461.605 762.57V757.57C455.833 757.57 450.736 758.326 446.835 760.335L449.125 764.78L451.415 769.225C453.235 768.287 456.457 767.57 461.605 767.57V762.57ZM449.125 764.78L446.889 760.308C442.674 762.415 439.98 766.077 438.616 770.623L443.405 772.06L448.194 773.497C448.91 771.11 450.029 769.918 451.361 769.252L449.125 764.78ZM443.405 772.06L438.584 770.734C437.456 774.836 436.975 780.209 436.975 786.62H441.975H446.975C446.975 780.551 447.448 776.217 448.226 773.386L443.405 772.06ZM441.975 786.62H436.975C436.975 793.119 437.456 798.563 438.576 802.736L443.405 801.44L448.234 800.144C447.447 797.21 446.975 792.775 446.975 786.62H441.975ZM443.405 801.44L438.616 802.877C439.98 807.423 442.674 811.085 446.889 813.192L449.125 808.72L451.361 804.248C450.029 803.582 448.91 802.39 448.194 800.003L443.405 801.44ZM449.125 808.72L446.944 813.219C450.807 815.092 455.858 815.8 461.605 815.8V810.8V805.8C456.432 805.8 453.163 805.121 451.306 804.221L449.125 808.72ZM585.937 745.54H590.937V740.54H585.937V745.54ZM582.817 814.44L578.186 812.556L578.172 812.59L578.159 812.624L582.817 814.44ZM572.287 825.62L574.333 830.183L574.365 830.168L574.398 830.153L572.287 825.62ZM528.737 825.62L526.686 830.18L526.731 830.2L526.777 830.22L528.737 825.62ZM517.817 814.44L522.449 812.556L522.449 812.556L517.817 814.44ZM514.697 745.54V740.54H509.697V745.54H514.697ZM535.497 745.54H540.497V740.54H535.497V745.54ZM536.797 804.04L532.071 805.67L532.071 805.67L536.797 804.04ZM541.477 809.37L539.382 813.91L539.455 813.943L539.529 813.975L541.477 809.37ZM559.677 809.37L561.835 813.881L561.874 813.862L561.913 813.842L559.677 809.37ZM563.967 804.04L568.743 805.522L568.743 805.522L563.967 804.04ZM565.137 745.54V740.54H560.137V745.54H565.137ZM585.937 745.54H580.937V794.03H585.937H590.937V745.54H585.937ZM585.937 794.03H580.937C580.937 802.189 579.928 808.274 578.186 812.556L582.817 814.44L587.449 816.324C589.867 810.379 590.937 802.858 590.937 794.03H585.937ZM582.817 814.44L578.159 812.624C576.639 816.524 574.05 819.284 570.177 821.087L572.287 825.62L574.398 830.153C580.579 827.276 585.009 822.583 587.476 816.256L582.817 814.44ZM572.287 825.62L570.242 821.057C566.15 822.892 559.859 824 550.967 824V829V834C560.449 834 568.372 832.855 574.333 830.183L572.287 825.62ZM550.967 829V824C541.721 824 535.088 822.891 530.698 821.02L528.737 825.62L526.777 830.22C532.961 832.855 541.147 834 550.967 834V829ZM528.737 825.62L530.789 821.06C526.718 819.228 524.027 816.436 522.449 812.556L517.817 814.44L513.186 816.324C515.768 822.67 520.357 827.332 526.686 830.18L528.737 825.62ZM517.817 814.44L522.449 812.556C520.707 808.274 519.697 802.189 519.697 794.03H514.697H509.697C509.697 802.858 510.768 810.379 513.186 816.324L517.817 814.44ZM514.697 794.03H519.697V745.54H514.697H509.697V794.03H514.697ZM514.697 745.54V750.54H535.497V745.54V740.54H514.697V745.54ZM535.497 745.54H530.497V793.64H535.497H540.497V745.54H535.497ZM535.497 793.64H530.497C530.497 798.298 530.943 802.399 532.071 805.67L536.797 804.04L541.524 802.41C540.919 800.654 540.497 797.822 540.497 793.64H535.497ZM536.797 804.04L532.071 805.67C533.346 809.369 535.797 812.255 539.382 813.91L541.477 809.37L543.573 804.83C542.651 804.405 541.982 803.738 541.524 802.41L536.797 804.04ZM541.477 809.37L539.529 813.975C542.676 815.306 546.611 815.8 550.967 815.8V810.8V805.8C547.177 805.8 544.785 805.34 543.426 804.765L541.477 809.37ZM550.967 810.8V815.8C555.06 815.8 558.845 815.31 561.835 813.881L559.677 809.37L557.52 804.859C556.523 805.336 554.501 805.8 550.967 805.8V810.8ZM559.677 809.37L561.913 813.842C565.377 812.11 567.617 809.148 568.743 805.522L563.967 804.04L559.192 802.558C558.758 803.958 558.138 804.55 557.441 804.898L559.677 809.37ZM563.967 804.04L568.743 805.522C569.739 802.313 570.137 798.271 570.137 793.64H565.137H560.137C560.137 797.849 559.756 800.741 559.192 802.558L563.967 804.04ZM565.137 793.64H570.137V745.54H565.137H560.137V793.64H565.137ZM565.137 745.54V750.54H585.937V745.54V740.54H565.137V745.54ZM622.103 827.83V832.83H627.103V827.83H622.103ZM601.303 827.83H596.303V832.83H601.303V827.83ZM601.303 745.54V740.54H596.303V745.54H601.303ZM663.053 752.56L659.518 756.096L659.551 756.128L659.584 756.16L663.053 752.56ZM665.133 790.39L669.212 793.282L669.224 793.265L669.236 793.247L665.133 790.39ZM651.743 799.36L650.675 794.475L647.899 795.083L647 797.779L651.743 799.36ZM651.613 799.75L646.87 798.169L645.639 801.863L648.918 803.961L651.613 799.75ZM658.763 806.64L662.647 803.491L662.647 803.491L658.763 806.64ZM666.433 817.17L662.259 819.922L662.295 819.977L662.333 820.031L666.433 817.17ZM673.323 827.7H678.323V826.305L677.601 825.111L673.323 827.7ZM673.323 827.83V832.83H678.323V827.83H673.323ZM649.143 827.83L644.999 830.627L646.486 832.83H649.143V827.83ZM635.103 807.03L630.943 809.803L630.951 809.815L630.959 809.827L635.103 807.03ZM632.113 803.13L628.376 806.452L628.474 806.562L628.578 806.666L632.113 803.13ZM629.513 801.7L628.619 806.619L628.655 806.626L628.691 806.632L629.513 801.7ZM622.103 801.44V796.44H617.103V801.44H622.103ZM622.103 762.44V757.44H617.103V762.44H622.103ZM622.103 784.54H617.103V789.54H622.103V784.54ZM646.153 781.94L642.618 778.404L642.573 778.45L642.528 778.496L646.153 781.94ZM646.153 765.04L642.528 768.484L642.573 768.53L642.618 768.576L646.153 765.04ZM622.103 827.83V822.83H601.303V827.83V832.83H622.103V827.83ZM601.303 827.83H606.303V745.54H601.303H596.303V827.83H601.303ZM601.303 745.54V750.54H640.563V745.54V740.54H601.303V745.54ZM640.563 745.54V750.54C650.271 750.54 656.185 752.763 659.518 756.096L663.053 752.56L666.589 749.024C660.562 742.997 651.482 740.54 640.563 740.54V745.54ZM663.053 752.56L659.584 756.16C663.06 759.51 665.203 764.808 665.203 772.97H670.203H675.203C675.203 763.105 672.58 754.797 666.523 748.96L663.053 752.56ZM670.203 772.97H665.203C665.203 778.859 663.746 783.634 661.03 787.533L665.133 790.39L669.236 793.247C673.281 787.44 675.203 780.601 675.203 772.97H670.203ZM665.133 790.39L661.055 787.498C658.372 791.281 654.966 793.537 650.675 794.475L651.743 799.36L652.812 804.244C659.614 802.757 665.135 799.032 669.212 793.282L665.133 790.39ZM651.743 799.36L647 797.779L646.87 798.169L651.613 799.75L656.357 801.331L656.487 800.941L651.743 799.36ZM651.613 799.75L648.918 803.961C650.446 804.939 652.439 806.778 654.88 809.789L658.763 806.64L662.647 803.491C659.888 800.088 657.114 797.334 654.309 795.539L651.613 799.75ZM658.763 806.64L654.88 809.789C657.366 812.855 659.826 816.231 662.259 819.922L666.433 817.17L670.608 814.418C668.014 810.482 665.361 806.838 662.647 803.491L658.763 806.64ZM666.433 817.17L662.333 820.031C664.882 823.684 667.117 827.103 669.046 830.289L673.323 827.7L677.601 825.111C675.543 821.71 673.185 818.109 670.534 814.309L666.433 817.17ZM673.323 827.7H668.323V827.83H673.323H678.323V827.7H673.323ZM673.323 827.83V822.83H649.143V827.83V832.83H673.323V827.83ZM649.143 827.83L653.288 825.033L639.248 804.233L635.103 807.03L630.959 809.827L644.999 830.627L649.143 827.83ZM635.103 807.03L639.264 804.256C638.009 802.374 636.791 800.736 635.649 799.594L632.113 803.13L628.578 806.666C628.996 807.084 629.771 808.046 630.943 809.803L635.103 807.03ZM632.113 803.13L635.85 799.808C634.389 798.165 632.49 797.127 630.335 796.768L629.513 801.7L628.691 806.632C628.692 806.632 628.626 806.62 628.534 806.569C628.44 806.517 628.387 806.464 628.376 806.452L632.113 803.13ZM629.513 801.7L630.408 796.781C628.976 796.52 627.026 796.44 624.833 796.44V801.44V806.44C626.974 806.44 628.144 806.533 628.619 806.619L629.513 801.7ZM624.833 801.44V796.44H622.103V801.44V806.44H624.833V801.44ZM622.103 801.44H617.103V827.83H622.103H627.103V801.44H622.103ZM637.183 762.44V757.44H622.103V762.44V767.44H637.183V762.44ZM622.103 762.44H617.103V784.54H622.103H627.103V762.44H622.103ZM622.103 784.54V789.54H637.183V784.54V779.54H622.103V784.54ZM637.183 784.54V789.54C641.866 789.54 646.661 788.665 649.778 785.384L646.153 781.94L642.528 778.496C642.352 778.682 641.168 779.54 637.183 779.54V784.54ZM646.153 781.94L649.689 785.476C652.785 782.379 653.753 777.96 653.753 773.49H648.753H643.753C643.753 776.82 642.988 778.034 642.618 778.404L646.153 781.94ZM648.753 773.49H653.753C653.753 769.02 652.785 764.601 649.689 761.504L646.153 765.04L642.618 768.576C642.988 768.946 643.753 770.16 643.753 773.49H648.753ZM646.153 765.04L649.778 761.596C646.661 758.315 641.866 757.44 637.183 757.44V762.44V767.44C641.168 767.44 642.352 768.298 642.528 768.484L646.153 765.04Z" fill="black" fill-opacity="0.98" style="fill:black;fill-opacity:0.98;" mask="url(#path-3-outside-1_1_17)"/>
</g>
<defs>
<filter id="filter0_d_1_17" x="251" y="689" width="520" height="176" filterUnits="userSpaceOnUse" color-interpolation-filters="sRGB">
<feFlood flood-opacity="0" result="BackgroundImageFix"/>
<feColorMatrix in="SourceAlpha" type="matrix" values="0 0 0 0 0 0 0 0 0 0 0 0 0 0 0 0 0 0 127 0" result="hardAlpha"/>
<feOffset dy="4"/>
<feGaussianBlur stdDeviation="2"/>
<feComposite in2="hardAlpha" operator="out"/>
<feColorMatrix type="matrix" values="0 0 0 0 0 0 0 0 0 0 0 0 0 0 0 0 0 0 0.25 0"/>
<feBlend mode="normal" in2="BackgroundImageFix" result="effect1_dropShadow_1_17"/>
<feBlend mode="normal" in="SourceGraphic" in2="effect1_dropShadow_1_17" result="shape"/>
</filter>
<filter id="filter1_d_1_17" x="338.3" y="739.37" width="344.023" height="102.63" filterUnits="userSpaceOnUse" color-interpolation-filters="sRGB">
<feFlood flood-opacity="0" result="BackgroundImageFix"/>
<feColorMatrix in="SourceAlpha" type="matrix" values="0 0 0 0 0 0 0 0 0 0 0 0 0 0 0 0 0 0 127 0" result="hardAlpha"/>
<feOffset dy="4"/>
<feGaussianBlur stdDeviation="2"/>
<feComposite in2="hardAlpha" operator="out"/>
<feColorMatrix type="matrix" values="0 0 0 0 0 0 0 0 0 0 0 0 0 0 0 0 0 0 0.25 0"/>
<feBlend mode="normal" in2="BackgroundImageFix" result="effect1_dropShadow_1_17"/>
<feBlend mode="normal" in="SourceGraphic" in2="effect1_dropShadow_1_17" result="shape"/>
</filter>
</defs>
</svg>
