<svg width="1024" height="1024" viewBox="0 0 1024 1024" fill="none" xmlns="http://www.w3.org/2000/svg">
<g filter="url(#filter0_d_1_12)">
<g filter="url(#filter1_d_1_12)">
<rect x="78" y="512" width="868" height="222" rx="45" fill="#DF161D" style="fill:#DF161D;fill:color(display-p3 0.8745 0.0863 0.1137);fill-opacity:1;"/>
<rect x="80.5" y="514.5" width="863" height="217" rx="42.5" stroke="black" style="stroke:black;stroke-opacity:1;" stroke-width="5"/>
</g>
<g filter="url(#filter2_d_1_12)">
<path d="M159.35 669.85C157.65 664.45 155.9 658.7 154.1 652.6C152.4 646.5 150.7 640.45 149 634.45C147.3 628.45 145.75 622.85 144.35 617.65C142.95 612.45 141.75 607.95 140.75 604.15C139.75 600.35 139.05 597.65 138.65 596.05L138.05 596.2C138.35 598 138.6 600.4 138.8 603.4C139 606.3 139.15 609.4 139.25 612.7C139.35 615.9 139.4 618.85 139.4 621.55V674.65H116.45V579.7H156.65C158.05 585 159.5 590.6 161 596.5C162.6 602.3 164.15 608.1 165.65 613.9C167.25 619.6 168.65 625.05 169.85 630.25C171.05 635.35 171.9 639.8 172.4 643.6H172.7C173.2 639.8 174 635.35 175.1 630.25C176.3 625.15 177.65 619.7 179.15 613.9C180.65 608.1 182.2 602.3 183.8 596.5C185.4 590.6 186.85 585 188.15 579.7H227.75V674.65H205.1V621.55C205.1 618.85 205.15 615.9 205.25 612.7C205.35 609.4 205.5 606.3 205.7 603.4C206 600.4 206.25 598 206.45 596.2L205.85 596.05C205.45 597.65 204.75 600.35 203.75 604.15C202.75 607.95 201.5 612.5 200 617.8C198.6 623 197.05 628.6 195.35 634.6C193.65 640.6 191.9 646.65 190.1 652.75C188.4 658.75 186.75 664.45 185.15 669.85H159.35ZM243.225 627.1C243.225 615 244.575 605.4 247.275 598.3C250.075 591.2 254.825 586.1 261.525 583C268.325 579.9 277.775 578.35 289.875 578.35C298.975 578.35 306.525 579.2 312.525 580.9C318.525 582.6 323.275 585.35 326.775 589.15C330.275 592.95 332.725 598 334.125 604.3C335.625 610.5 336.375 618.1 336.375 627.1C336.375 636.2 335.625 643.9 334.125 650.2C332.725 656.4 330.275 661.4 326.775 665.2C323.275 669 318.525 671.75 312.525 673.45C306.525 675.15 298.975 676 289.875 676C280.775 676 273.225 675.15 267.225 673.45C261.225 671.75 256.475 669 252.975 665.2C249.475 661.4 246.975 656.4 245.475 650.2C243.975 643.9 243.225 636.2 243.225 627.1ZM289.875 655C296.275 655 301.075 654.2 304.275 652.6C307.475 651 309.625 648.2 310.725 644.2C311.825 640.1 312.375 634.4 312.375 627.1C312.375 619.9 311.825 614.3 310.725 610.3C309.625 606.3 307.475 603.5 304.275 601.9C301.075 600.2 296.275 599.35 289.875 599.35C283.575 599.35 278.775 600.2 275.475 601.9C272.275 603.5 270.075 606.3 268.875 610.3C267.775 614.3 267.225 619.9 267.225 627.1C267.225 634.4 267.775 640.1 268.875 644.2C270.075 648.2 272.275 651 275.475 652.6C278.775 654.2 283.575 655 289.875 655ZM412.9 579.7H436.9V674.65H413.05L386.05 634.45C383.95 631.25 382.2 628.55 380.8 626.35C379.4 624.15 378.1 621.95 376.9 619.75C375.7 617.55 374.35 614.95 372.85 611.95L372.4 612.55C373.8 617.35 374.65 621.85 374.95 626.05C375.25 630.15 375.4 634.15 375.4 638.05V674.65H351.4V579.7H375.25L402.25 619.9C404.35 623 406.1 625.7 407.5 628C408.9 630.2 410.2 632.4 411.4 634.6C412.6 636.8 413.95 639.4 415.45 642.4L415.9 641.8C414.9 637.6 414.15 633.55 413.65 629.65C413.15 625.65 412.9 621.7 412.9 617.8V579.7ZM451.965 627.1C451.965 615 453.315 605.4 456.015 598.3C458.815 591.2 463.565 586.1 470.265 583C477.065 579.9 486.515 578.35 498.615 578.35C507.715 578.35 515.265 579.2 521.265 580.9C527.265 582.6 532.015 585.35 535.515 589.15C539.015 592.95 541.465 598 542.865 604.3C544.365 610.5 545.115 618.1 545.115 627.1C545.115 636.2 544.365 643.9 542.865 650.2C541.465 656.4 539.015 661.4 535.515 665.2C532.015 669 527.265 671.75 521.265 673.45C515.265 675.15 507.715 676 498.615 676C489.515 676 481.965 675.15 475.965 673.45C469.965 671.75 465.215 669 461.715 665.2C458.215 661.4 455.715 656.4 454.215 650.2C452.715 643.9 451.965 636.2 451.965 627.1ZM498.615 655C505.015 655 509.815 654.2 513.015 652.6C516.215 651 518.365 648.2 519.465 644.2C520.565 640.1 521.115 634.4 521.115 627.1C521.115 619.9 520.565 614.3 519.465 610.3C518.365 606.3 516.215 603.5 513.015 601.9C509.815 600.2 505.015 599.35 498.615 599.35C492.315 599.35 487.515 600.2 484.215 601.9C481.015 603.5 478.815 606.3 477.615 610.3C476.515 614.3 475.965 619.9 475.965 627.1C475.965 634.4 476.515 640.1 477.615 644.2C478.815 648.2 481.015 651 484.215 652.6C487.515 654.2 492.315 655 498.615 655ZM584.141 674.65H560.141V579.7H602.441C611.941 579.7 619.541 580.85 625.241 583.15C630.941 585.45 635.041 589.2 637.541 594.4C640.041 599.6 641.291 606.65 641.291 615.55C641.291 623.95 640.041 630.8 637.541 636.1C635.041 641.3 630.941 645.15 625.241 647.65C619.541 650.15 611.941 651.4 602.441 651.4H584.141V674.65ZM598.541 599.35H584.141V631.75H598.541C605.641 631.75 610.391 630.55 612.791 628.15C615.191 625.75 616.391 621.55 616.391 615.55C616.391 609.85 615.191 605.75 612.791 603.25C610.391 600.65 605.641 599.35 598.541 599.35ZM651.037 627.1C651.037 615 652.387 605.4 655.087 598.3C657.887 591.2 662.637 586.1 669.337 583C676.137 579.9 685.587 578.35 697.687 578.35C706.787 578.35 714.337 579.2 720.337 580.9C726.337 582.6 731.087 585.35 734.587 589.15C738.087 592.95 740.537 598 741.937 604.3C743.437 610.5 744.187 618.1 744.187 627.1C744.187 636.2 743.437 643.9 741.937 650.2C740.537 656.4 738.087 661.4 734.587 665.2C731.087 669 726.337 671.75 720.337 673.45C714.337 675.15 706.787 676 697.687 676C688.587 676 681.037 675.15 675.037 673.45C669.037 671.75 664.287 669 660.787 665.2C657.287 661.4 654.787 656.4 653.287 650.2C651.787 643.9 651.037 636.2 651.037 627.1ZM697.687 655C704.087 655 708.887 654.2 712.087 652.6C715.287 651 717.437 648.2 718.537 644.2C719.637 640.1 720.187 634.4 720.187 627.1C720.187 619.9 719.637 614.3 718.537 610.3C717.437 606.3 715.287 603.5 712.087 601.9C708.887 600.2 704.087 599.35 697.687 599.35C691.387 599.35 686.587 600.2 683.287 601.9C680.087 603.5 677.887 606.3 676.687 610.3C675.587 614.3 675.037 619.9 675.037 627.1C675.037 634.4 675.587 640.1 676.687 644.2C677.887 648.2 680.087 651 683.287 652.6C686.587 654.2 691.387 655 697.687 655ZM828.213 654.25V674.65H759.213V579.7H783.213V654.25H828.213ZM860.504 674.65V645.25L829.754 580.15V579.7H856.004C859.104 587.8 861.554 594.3 863.354 599.2C865.254 604 866.704 607.8 867.704 610.6C868.804 613.3 869.654 615.5 870.254 617.2C870.854 618.9 871.504 620.7 872.204 622.6H872.804C873.504 620.7 874.154 618.9 874.754 617.2C875.354 615.5 876.154 613.3 877.154 610.6C878.254 607.8 879.704 604 881.504 599.2C883.404 594.3 885.904 587.8 889.004 579.7H915.254V580.15L884.504 645.25V674.65H860.504Z" fill="white" style="fill:white;fill-opacity:1;"/>
</g>
</g>
<defs>
<filter id="filter0_d_1_12" x="-4" y="0" width="1032" height="1032" filterUnits="userSpaceOnUse" color-interpolation-filters="sRGB">
<feFlood flood-opacity="0" result="BackgroundImageFix"/>
<feColorMatrix in="SourceAlpha" type="matrix" values="0 0 0 0 0 0 0 0 0 0 0 0 0 0 0 0 0 0 127 0" result="hardAlpha"/>
<feOffset dy="4"/>
<feGaussianBlur stdDeviation="2"/>
<feComposite in2="hardAlpha" operator="out"/>
<feColorMatrix type="matrix" values="0 0 0 0 0 0 0 0 0 0 0 0 0 0 0 0 0 0 0.25 0"/>
<feBlend mode="normal" in2="BackgroundImageFix" result="effect1_dropShadow_1_12"/>
<feBlend mode="normal" in="SourceGraphic" in2="effect1_dropShadow_1_12" result="shape"/>
</filter>
<filter id="filter1_d_1_12" x="74" y="512" width="876" height="230" filterUnits="userSpaceOnUse" color-interpolation-filters="sRGB">
<feFlood flood-opacity="0" result="BackgroundImageFix"/>
<feColorMatrix in="SourceAlpha" type="matrix" values="0 0 0 0 0 0 0 0 0 0 0 0 0 0 0 0 0 0 127 0" result="hardAlpha"/>
<feOffset dy="4"/>
<feGaussianBlur stdDeviation="2"/>
<feComposite in2="hardAlpha" operator="out"/>
<feColorMatrix type="matrix" values="0 0 0 0 0 0 0 0 0 0 0 0 0 0 0 0 0 0 0.25 0"/>
<feBlend mode="normal" in2="BackgroundImageFix" result="effect1_dropShadow_1_12"/>
<feBlend mode="normal" in="SourceGraphic" in2="effect1_dropShadow_1_12" result="shape"/>
</filter>
<filter id="filter2_d_1_12" x="112.45" y="578.35" width="806.804" height="105.65" filterUnits="userSpaceOnUse" color-interpolation-filters="sRGB">
<feFlood flood-opacity="0" result="BackgroundImageFix"/>
<feColorMatrix in="SourceAlpha" type="matrix" values="0 0 0 0 0 0 0 0 0 0 0 0 0 0 0 0 0 0 127 0" result="hardAlpha"/>
<feOffset dy="4"/>
<feGaussianBlur stdDeviation="2"/>
<feComposite in2="hardAlpha" operator="out"/>
<feColorMatrix type="matrix" values="0 0 0 0 0 0 0 0 0 0 0 0 0 0 0 0 0 0 0.75 0"/>
<feBlend mode="normal" in2="BackgroundImageFix" result="effect1_dropShadow_1_12"/>
<feBlend mode="normal" in="SourceGraphic" in2="effect1_dropShadow_1_12" result="shape"/>
</filter>
</defs>
</svg>
